# AST/ASF file generated using VICON BodyLanguage
# -----------------------------------------------
:version 1.10
:name VICON
:units
  mass 1.0
  length 0.45
  angle deg
:documentation
   .ast/.asf automatically generated from VICON data using
   VICON BodyBuilder and BodyLanguage model FoxedUp or BRILLIANT.MOD
:root
   order TX TY TZ RX RY RZ
   axis XYZ
   position 0 0 0  
   orientation 0 0 0 
:bonedata
  begin
     id 1 
     name lhipjoint
     direction 0.624716 -0.669793 0.401383 
     length 2.38238 
     axis 0 0 0  XYZ
  end
  begin
     id 2 
     name lfemur
     direction 0.34202 -0.939693 0  
     length 6.4574  
     axis 0 0 20  XYZ
    dof rx ry rz
    limits (-160.0 20.0)
           (-70.0 70.0)
           (-60.0 70.0)
  end
  begin
     id 3 
     name ltibia
     direction 0.34202 -0.939693 0   
     length 7.68739   
     axis 0 0 20   XYZ
    dof rx
    limits (-10.0 170.0)
  end
  begin
     id 4 
     name lfoot
     direction 0.0681309 -0.187188 0.979959   
     length 2.46615   
     axis -90 7.62852e-016 20   XYZ
    dof rx rz
    limits (-45.0 90.0)
           (-70.0 20.0)
  end
  begin
     id 5 
     name ltoes
     direction 1.53566e-011 -4.21819e-011 1   
     length 1.2376   
     axis -90 7.62852e-016 20   XYZ
    dof rx
    limits (-90.0 20.0)
  end
  begin
     id 6 
     name rhipjoint
     direction -0.644473 -0.655875 0.393043   
     length 2.43293  
     axis 0 0 0  XYZ 
  end
  begin
     id 7 
     name rfemur
     direction -0.34202 -0.939693 0   
     length 6.7025   
     axis 0 0 -20   XYZ
    dof rx ry rz
    limits (-160.0 20.0)
           (-70.0 70.0)
           (-70.0 60.0)
  end
  begin
     id 8 
     name rtibia
     direction -0.34202 -0.939693 0   
     length 7.80547   
     axis 0 0 -20   XYZ
    dof rx
    limits (-10.0 170.0)
 end
 begin
     id 9 
     name rfoot
     direction -0.0756734 -0.207911 0.975216   
     length 2.40315  
     axis -90 -7.62852e-016 -20   XYZ
    dof rx rz
    limits (-45.0 90.0)
           (-20.0 70.0)
  end
  begin
     id 10 
     name rtoes
     direction -1.5353e-011 -4.21879e-011 1   
     length 1.20477   
     axis -90 -7.62852e-016 -20   XYZ
    dof rx
    limits (-90.0 20.0)
  end
  begin
     id 11 
     name lowerback
     direction 0.0160353 0.987463 -0.157037   
     length 2.18572   
     axis 0 0 0   XYZ
    dof rx ry rz
    limits (-20.0 45.0)
           (-30.0 30.0)
           (-30.0 30.0)
  end
  begin
     id 12 
     name upperback
     direction -0.00499661 0.999756 0.0215076   
     length 2.18016   
     axis 0 0 0   XYZ
    dof rx ry rz
    limits (-20.0 45.0)
           (-30.0 30.0)
           (-30.0 30.0)
  end
  begin
     id 13 
     name thorax
     direction -0.00921346 0.995333 0.0960619   
     length 2.24923   
     axis 0 0 0   XYZ
    dof rx ry rz
    limits (-20.0 45.0)
           (-30.0 30.0)
           (-30.0 30.0)
  end
  begin
     id 14 
     name lowerneck
     direction 0.0274184 0.991181 0.12965   
     length 1.70911   
     axis 0 0 0   XYZ
    dof rx ry rz
    limits (-20.0 45.0)
           (-30.0 30.0)
           (-30.0 30.0)
  end
  begin
     id 15 
     name upperneck
     direction 0.0015627 0.999959 -0.00893559   
     length 1.69312   
     axis 0 0 0   XYZ
    dof rx ry rz
    limits (-20.0 45.0)
           (-30.0 30.0)
           (-30.0 30.0)
  end
  begin
     id 16
     name head
     direction -0.00230242 0.999856 -0.0168327  
     length 1.80241  
     axis 0 0 0   XYZ
    dof rx ry rz
    limits (-20.0 45.0)
           (-30.0 30.0)
           (-30.0 30.0)
  end
  begin
     id 17 
     name lclavicle
     direction 0.955523 0.290741 -0.0494489  
     length 3.84275  
     axis 0 0 0   XYZ
    dof ry rz
    limits (-20.0 10.0)
           (0.0 20.0)
  end
  begin
     id 18 
     name lhumerus
     direction 1 -4.48967e-011 -3.18382e-028   
     length 5.17714   
     axis 180 -30 -90   XYZ
    dof rx ry rz
    limits (-60.0 90.0)
           (-90.0 90.0)
           (-90.0 90.0)
  end
  begin
     id 19
     name lradius
     direction 1 -4.48968e-011 -2.22911e-027   
     length 3.43679   
     axis 180 -30 -90   XYZ
    dof rx
    limits (-10.0 170.0)
  end
  begin
     id 20
     name lwrist
     direction 1 -4.48951e-011 -6.32245e-027   
     length 1.7184   
     axis 3.57107e-015 90 90   XYZ
    dof ry
    limits (-180.0 0.0)
 end
  begin
     id 21 
     name lhand
     direction 1 -4.48924e-011 -1.26431e-026   
     length 0.573117   
     axis 8.06912e-015 90 90   XYZ
    dof rx rz
    limits (-90.0 90.0)
           (-45.0 45.0)
  end
  begin
     id 22 
     name lfingers
     direction 1 -4.49001e-011 -2.52965e-026   
     length 0.462062   
     axis 1.61381e-014 90 90   XYZ
    dof rx
    limits (0.0 90.0)
  end
  begin
     id 23
     name lthumb
     direction 0.707107 -6.35008e-011 0.707107   
     length 0.663431   
     axis -90 45 -1.62303e-014   XYZ
    dof rx rz
    limits (-45.0 45.0)
           (-45.0 45.0)
  end
  begin
     id 24 
     name rclavicle
     direction -0.963917 0.256881 -0.0698287   
     length 3.73057  
     axis 0 0 0   XYZ 
    dof ry rz
    limits (-10.0 20.0)
           (-20.0 0.0)
  end
  begin
     id 25 
     name rhumerus
     direction -1 -4.48962e-011 -2.73982e-027  
     length 5.23908   
     axis 180 30 90   XYZ
    dof rx ry rz
    limits (-90.0 60.0)
           (-90.0 90.0)
           (-90.0 90.0)
  end
  begin
     id 26 
     name rradius
     direction -1 -4.48968e-011 -4.33218e-027   
     length 3.46485   
     axis 180 30 90   XYZ
    dof rx
    limits (-10.0 170.0)
  end
  begin
     id 27 
     name rwrist
     direction -1 -4.48989e-011 -6.32372e-027   
     length 1.73243   
     axis 3.57107e-015 -90 -90   XYZ
    dof ry
    limits (-180.0 0.0)
  end
  begin
     id 28
     name rhand
     direction -1 -4.48948e-011 -1.26448e-026   
     length 0.608752   
     axis 8.06912e-015 -90 -90   XYZ
    dof rx rz
    limits (-90.0 90.0)
           (-45.0 45.0)
  end
  begin
     id 29
     name rfingers
     direction -1 -4.48962e-011 -2.52913e-026   
     length 0.490792   
     axis 1.61381e-014 -90 -90   XYZ
    dof rx
    limits (0.0 90.0)
  end
  begin
     id 30
     name rthumb
     direction -0.707107 -6.34878e-011 0.707107   
     length 0.704682   
     axis -90 -45 1.62303e-014   XYZ
    dof rx rz
    limits (-45.0 45.0)
           (-45.0 45.0)
  end
:hierarchy
  begin
    root lhipjoint rhipjoint lowerback
    lhipjoint lfemur
    lfemur ltibia
    ltibia lfoot
    lfoot ltoes
    rhipjoint rfemur
    rfemur rtibia
    rtibia rfoot
    rfoot rtoes
    lowerback upperback
    upperback thorax
    thorax lowerneck lclavicle rclavicle
    lowerneck upperneck
    upperneck head
    lclavicle lhumerus
    lhumerus lradius
    lradius lwrist
    lwrist lhand lthumb
    lhand lfingers
    rclavicle rhumerus
    rhumerus rradius
    rradius rwrist
    rwrist rhand rthumb
    rhand rfingers
  end

#!OML:ASF G:\JayActor3\Patient Classification 1\Patient 1\Session 6\male.ASF
:FULLY-SPECIFIED
:DEGREES
186
root 45.2729 15.8616 13.5563 174.175 -53.6599 -173.504
lowerback -6.42986 2.18515 -0.859311
upperback 1.79821 3.04007 -1.12277
thorax 5.49201 1.48819 -0.348205
lowerneck -5.70037 -0.54812 -0.52133
upperneck 32.4837 -4.25171 4.4626
head 11.6281 -2.24175 1.11126
rclavicle 8.1626e-014 3.97569e-015
rhumerus 25.5104 3.09314 -75.5809
rradius 22.1759
rwrist 12.4681
rhand -18.0293 -5.34737
rfingers 7.12502
rthumb 8.24205 -35.1666
lclavicle 8.1626e-014 3.97569e-015
lhumerus -23.6282 13.4398 79.7232
lradius 23.0632
lwrist 23.8435
lhand -16.0912 6.28951
lfingers 7.12502
lthumb 10.1122 36.0265
rfemur -11.1479 1.91467 19.2132
rtibia 37.5341
rfoot -24.9179 -13.6977
rtoes -3.34708
lfemur -1.23715 4.67806 -18.6049
ltibia 27.1814
lfoot -27.1529 20.6564
ltoes 2.40714
187
root 45.262 15.8604 13.563 174.147 -53.8123 -173.448
lowerback -6.4759 2.2099 -0.903284
upperback 1.77062 3.07911 -1.17257
thorax 5.48995 1.50655 -0.369723
lowerneck -5.71902 -0.621982 -0.549253
upperneck 32.5055 -4.35316 4.45964
head 11.6447 -2.29 1.10335
rclavicle 4.37078e-014 -3.89618e-014
rhumerus 26.3348 3.18059 -75.2069
rradius 21.9787
rwrist 12.546
rhand -17.7252 -5.40267
rfingers 7.12502
rthumb 8.53557 -35.2101
lclavicle 4.37078e-014 -3.89618e-014
lhumerus -23.6406 13.4162 79.6112
lradius 23.1336
lwrist 23.88
lhand -16.1242 6.24585
lfingers 7.12502
lthumb 10.0803 35.9844
rfemur -11.1237 1.8549 19.1877
rtibia 37.529
rfoot -24.96 -13.7375
rtoes -3.37721
lfemur -1.27967 4.73572 -18.5928
ltibia 27.2156
lfoot -27.1121 20.4722
ltoes 2.36328
188
root 45.251 15.8587 13.5699 174.104 -53.959 -173.38
lowerback -6.51047 2.23579 -0.938719
upperback 1.74439 3.11859 -1.21816
thorax 5.48301 1.52542 -0.392009
lowerneck -5.73131 -0.694342 -0.578254
upperneck 32.5183 -4.4513 4.45835
head 11.6565 -2.33667 1.09669
rclavicle 3.24764e-014 -7.95139e-016
rhumerus 27.1053 3.28947 -74.8182
rradius 21.8038
rwrist 12.6201
rhand -17.4436 -5.44878
rfingers 7.12502
rthumb 8.80731 -35.245
lclavicle 3.24764e-014 -7.95139e-016
lhumerus -23.664 13.4017 79.4958
lradius 23.1966
lwrist 23.923
lhand -16.1591 6.19485
lfingers 7.12502
lthumb 10.0467 35.935
rfemur -11.0961 1.7957 19.169
rtibia 37.5262
rfoot -24.9961 -13.7775
rtoes -3.4285
lfemur -1.31945 4.7934 -18.5724
ltibia 27.2489
lfoot -27.0615 20.3022
ltoes 2.29021
189
root 45.24 15.857 13.577 174.053 -54.0966 -173.308
lowerback -6.55673 2.26065 -0.967833
upperback 1.73426 3.15656 -1.26108
thorax 5.4998 1.5435 -0.414353
lowerneck -5.75356 -0.758893 -0.610906
upperneck 32.521 -4.53593 4.46156
head 11.6659 -2.3763 1.09387
rclavicle -1.12375e-013 2.38542e-014
rhumerus 27.85 3.41296 -74.4253
rradius 21.6473
rwrist 12.6947
rhand -17.1765 -5.49483
rfingers 7.12502
rthumb 9.06501 -35.28
lclavicle -1.12375e-013 2.38542e-014
lhumerus -23.6621 13.4161 79.3761
lradius 23.2289
lwrist 23.959
lhand -16.1813 6.14889
lfingers 7.12502
lthumb 10.0253 35.8901
rfemur -11.0662 1.74023 19.1526
rtibia 37.5248
rfoot -25.0268 -13.8126
rtoes -3.48799
lfemur -1.3559 4.86021 -18.5481
ltibia 27.2802
lfoot -27.0008 20.1417
ltoes 2.181
190
root 45.2292 15.8554 13.5842 174 -54.2304 -173.235
lowerback -6.60973 2.28709 -0.994196
upperback 1.73549 3.19682 -1.30558
thorax 5.53262 1.56267 -0.43903
lowerneck -5.77375 -0.823393 -0.636655
upperneck 32.5027 -4.62002 4.47214
head 11.6665 -2.41346 1.09274
rclavicle 4.08627e-014 -3.89618e-014
rhumerus 28.5622 3.52691 -74.0398
rradius 21.5084
rwrist 12.7644
rhand -16.9191 -5.53974
rfingers 7.12502
rthumb 9.31339 -35.314
lclavicle 4.08627e-014 -3.89618e-014
lhumerus -23.6527 13.4251 79.2547
lradius 23.2584
lwrist 24.0017
lhand -16.1986 6.09545
lfingers 7.12502
lthumb 10.0086 35.8375
rfemur -11.0373 1.68425 19.1371
rtibia 37.523
rfoot -25.0477 -13.8526
rtoes -3.56802
lfemur -1.39099 4.942 -18.5201
ltibia 27.3091
lfoot -26.9323 19.9759
ltoes 2.05248
191
root 45.2185 15.8542 13.5917 173.944 -54.3585 -173.16
lowerback -6.66648 2.31308 -1.01777
upperback 1.7463 3.23653 -1.3502
thorax 5.57783 1.58155 -0.465028
lowerneck -5.79191 -0.883281 -0.662266
upperneck 32.4709 -4.69681 4.48908
head 11.6612 -2.44626 1.09487
rclavicle 8.19987e-016 0
rhumerus 29.2438 3.64213 -73.6603
rradius 21.388
rwrist 12.8159
rhand -16.6574 -5.58985
rfingers 7.12502
rthumb 9.56591 -35.3527
lclavicle 8.19987e-016 0
lhumerus -23.6356 13.4309 79.1292
lradius 23.2755
lwrist 24.057
lhand -16.1992 6.0775
lfingers 7.12502
lthumb 10.008 35.8196
rfemur -11.0079 1.62838 19.1222
rtibia 37.5191
rfoot -25.0602 -13.8909
rtoes -3.66074
lfemur -1.4208 5.03394 -18.4903
ltibia 27.3352
lfoot -26.8733 19.7944
ltoes 1.95514
